G04 Layer_Color=8421504*
%FSLAX25Y25*%
%MOIN*%
G70*
G01*
G75*
%ADD10R,0.13386X0.23622*%
G04:AMPARAMS|DCode=11|XSize=27.56mil|YSize=118.11mil|CornerRadius=6.89mil|HoleSize=0mil|Usage=FLASHONLY|Rotation=0.000|XOffset=0mil|YOffset=0mil|HoleType=Round|Shape=RoundedRectangle|*
%AMROUNDEDRECTD11*
21,1,0.02756,0.10433,0,0,0.0*
21,1,0.01378,0.11811,0,0,0.0*
1,1,0.01378,0.00689,-0.05216*
1,1,0.01378,-0.00689,-0.05216*
1,1,0.01378,-0.00689,0.05216*
1,1,0.01378,0.00689,0.05216*
%
%ADD11ROUNDEDRECTD11*%
%ADD12R,0.08661X0.09449*%
%ADD13R,0.03937X0.04331*%
%ADD14R,0.04331X0.03937*%
%ADD15R,0.07008X0.13780*%
%ADD16R,0.03543X0.03740*%
%ADD17R,0.03543X0.03740*%
%ADD18R,0.05709X0.01772*%
%ADD19R,0.08465X0.12598*%
%ADD20R,0.08465X0.03543*%
G04:AMPARAMS|DCode=21|XSize=137.8mil|YSize=64.96mil|CornerRadius=16.24mil|HoleSize=0mil|Usage=FLASHONLY|Rotation=0.000|XOffset=0mil|YOffset=0mil|HoleType=Round|Shape=RoundedRectangle|*
%AMROUNDEDRECTD21*
21,1,0.13780,0.03248,0,0,0.0*
21,1,0.10531,0.06496,0,0,0.0*
1,1,0.03248,0.05266,-0.01624*
1,1,0.03248,-0.05266,-0.01624*
1,1,0.03248,-0.05266,0.01624*
1,1,0.03248,0.05266,0.01624*
%
%ADD21ROUNDEDRECTD21*%
G04:AMPARAMS|DCode=22|XSize=50mil|YSize=114.96mil|CornerRadius=12.5mil|HoleSize=0mil|Usage=FLASHONLY|Rotation=0.000|XOffset=0mil|YOffset=0mil|HoleType=Round|Shape=RoundedRectangle|*
%AMROUNDEDRECTD22*
21,1,0.05000,0.08996,0,0,0.0*
21,1,0.02500,0.11496,0,0,0.0*
1,1,0.02500,0.01250,-0.04498*
1,1,0.02500,-0.01250,-0.04498*
1,1,0.02500,-0.01250,0.04498*
1,1,0.02500,0.01250,0.04498*
%
%ADD22ROUNDEDRECTD22*%
%ADD23R,0.03937X0.08858*%
%ADD24R,0.08858X0.03937*%
G04:AMPARAMS|DCode=25|XSize=98.42mil|YSize=98.42mil|CornerRadius=24.61mil|HoleSize=0mil|Usage=FLASHONLY|Rotation=90.000|XOffset=0mil|YOffset=0mil|HoleType=Round|Shape=RoundedRectangle|*
%AMROUNDEDRECTD25*
21,1,0.09842,0.04921,0,0,90.0*
21,1,0.04921,0.09842,0,0,90.0*
1,1,0.04921,0.02461,0.02461*
1,1,0.04921,0.02461,-0.02461*
1,1,0.04921,-0.02461,-0.02461*
1,1,0.04921,-0.02461,0.02461*
%
%ADD25ROUNDEDRECTD25*%
%ADD26R,0.00984X0.02756*%
%ADD27R,0.00984X0.04331*%
%ADD28R,0.04331X0.00984*%
%ADD29R,0.03150X0.00984*%
%ADD30R,0.05118X0.05905*%
%ADD31R,0.09646X0.06102*%
D10*
X80244Y-162306D02*
D03*
X25756D02*
D03*
D11*
X50559Y-137031D02*
D03*
X55441D02*
D03*
X60362D02*
D03*
X45638D02*
D03*
D12*
X130000Y8598D02*
D03*
Y-16598D02*
D03*
D13*
X14000Y-119153D02*
D03*
Y-125847D02*
D03*
X53970Y-63923D02*
D03*
Y-57230D02*
D03*
X46970Y-63923D02*
D03*
Y-57230D02*
D03*
X39970Y-63923D02*
D03*
Y-57230D02*
D03*
X54981Y-106372D02*
D03*
Y-99679D02*
D03*
X48482Y-106372D02*
D03*
Y-99679D02*
D03*
X41982Y-106372D02*
D03*
Y-99679D02*
D03*
X35482Y-106372D02*
D03*
Y-99679D02*
D03*
X500Y-124846D02*
D03*
Y-118154D02*
D03*
X-8000Y-124846D02*
D03*
Y-118154D02*
D03*
X11000Y-25654D02*
D03*
Y-32346D02*
D03*
X5000Y-32346D02*
D03*
Y-25653D02*
D03*
X78500Y-80847D02*
D03*
Y-74154D02*
D03*
X76000Y-124346D02*
D03*
Y-117654D02*
D03*
X-1000Y-32346D02*
D03*
Y-25654D02*
D03*
X-8000Y-32346D02*
D03*
Y-25654D02*
D03*
X90000Y-32654D02*
D03*
Y-39347D02*
D03*
X173000Y-69653D02*
D03*
Y-76346D02*
D03*
Y-29654D02*
D03*
Y-36347D02*
D03*
X24000Y-186346D02*
D03*
Y-179654D02*
D03*
X92000Y-172346D02*
D03*
Y-165654D02*
D03*
D14*
X95346Y12000D02*
D03*
X88653D02*
D03*
X59123Y-74576D02*
D03*
X65816D02*
D03*
X59123Y-81077D02*
D03*
X65816D02*
D03*
X81623Y-61677D02*
D03*
X88316D02*
D03*
X57135Y-118526D02*
D03*
X63828D02*
D03*
X57135Y-125026D02*
D03*
X63828D02*
D03*
X81635Y-111526D02*
D03*
X88328D02*
D03*
X35346Y-123000D02*
D03*
X28653D02*
D03*
X35346Y-129000D02*
D03*
X28653D02*
D03*
X81623Y-68177D02*
D03*
X88316D02*
D03*
X80654Y-54000D02*
D03*
X87347D02*
D03*
X81635Y-105026D02*
D03*
X88328D02*
D03*
X81635Y-97526D02*
D03*
X88328D02*
D03*
X87297Y-22000D02*
D03*
X80604D02*
D03*
X36654Y-80000D02*
D03*
X43347D02*
D03*
D15*
X133158Y-145000D02*
D03*
X152842D02*
D03*
X99158D02*
D03*
X118842D02*
D03*
D16*
X7500Y-101579D02*
D03*
X3760Y-111421D02*
D03*
X-11240D02*
D03*
X-7500Y-101579D02*
D03*
D17*
X11240Y-111421D02*
D03*
X-3760D02*
D03*
D18*
X9728Y-159250D02*
D03*
Y-156750D02*
D03*
Y-154250D02*
D03*
Y-151750D02*
D03*
Y-149250D02*
D03*
Y-146750D02*
D03*
Y-144250D02*
D03*
Y-141750D02*
D03*
Y-139250D02*
D03*
Y-136750D02*
D03*
X-11728Y-159250D02*
D03*
Y-156750D02*
D03*
Y-154250D02*
D03*
Y-151750D02*
D03*
Y-149250D02*
D03*
Y-146750D02*
D03*
Y-144250D02*
D03*
Y-141750D02*
D03*
Y-139250D02*
D03*
Y-136750D02*
D03*
D19*
X111516Y-6000D02*
D03*
D20*
X88484Y-15055D02*
D03*
Y-6000D02*
D03*
Y3055D02*
D03*
D21*
X137559Y-182110D02*
D03*
X94646D02*
D03*
D22*
X121811Y-162031D02*
D03*
X110000D02*
D03*
D23*
X112315Y-31740D02*
D03*
X120189D02*
D03*
X128063D02*
D03*
X135937D02*
D03*
X143811D02*
D03*
X151685D02*
D03*
D24*
X162512Y-36661D02*
D03*
Y-44535D02*
D03*
Y-52409D02*
D03*
Y-60283D02*
D03*
Y-68158D02*
D03*
Y-76032D02*
D03*
Y-83906D02*
D03*
Y-91780D02*
D03*
X101488D02*
D03*
Y-83906D02*
D03*
Y-76032D02*
D03*
Y-68158D02*
D03*
Y-60283D02*
D03*
Y-52409D02*
D03*
Y-44535D02*
D03*
Y-36661D02*
D03*
D25*
X22000Y-39000D02*
D03*
X75150D02*
D03*
Y10213D02*
D03*
X22000D02*
D03*
D26*
X64517Y-66722D02*
D03*
X72391D02*
D03*
X62548D02*
D03*
X70422D02*
D03*
X64529Y-110671D02*
D03*
X72403D02*
D03*
X62560D02*
D03*
X70434D02*
D03*
D27*
X68454Y-65935D02*
D03*
X66485D02*
D03*
X68466Y-109884D02*
D03*
X66497D02*
D03*
D28*
X72391Y-60620D02*
D03*
Y-52155D02*
D03*
Y-58061D02*
D03*
Y-48809D02*
D03*
Y-55502D02*
D03*
X62548D02*
D03*
Y-48809D02*
D03*
Y-58061D02*
D03*
Y-52155D02*
D03*
Y-60620D02*
D03*
X72403Y-104569D02*
D03*
Y-96104D02*
D03*
Y-102010D02*
D03*
Y-92758D02*
D03*
Y-99451D02*
D03*
X62560D02*
D03*
Y-92758D02*
D03*
Y-102010D02*
D03*
Y-96104D02*
D03*
Y-104569D02*
D03*
D29*
X72981Y-63179D02*
D03*
X61958D02*
D03*
X72993Y-107128D02*
D03*
X61970D02*
D03*
D30*
X16260Y-195000D02*
D03*
X23740D02*
D03*
X83260D02*
D03*
X90740D02*
D03*
D31*
X20602Y-92000D02*
D03*
X8398D02*
D03*
X20602Y-78000D02*
D03*
X8398D02*
D03*
M02*
