G04 Layer_Color=16711935*
%FSLAX25Y25*%
%MOIN*%
G70*
G01*
G75*
%ADD82C,0.00800*%
%ADD83C,0.05918*%
%ADD84C,0.28359*%
%ADD85R,0.06706X0.06706*%
%ADD86C,0.06706*%
%ADD87C,0.03400*%
D82*
X10714Y-58001D02*
D03*
X63827Y-164590D02*
D03*
X42173D02*
D03*
D83*
X2840Y-63512D02*
D03*
X10714D02*
D03*
X18588D02*
D03*
X1659Y-56426D02*
D03*
X19770D02*
D03*
X7565Y-48552D02*
D03*
X13864D02*
D03*
D84*
X0Y-182931D02*
D03*
X161277Y-182931D02*
D03*
Y0D02*
D03*
X0Y0D02*
D03*
D85*
X-5000Y-85500D02*
D03*
D86*
Y-75500D02*
D03*
D87*
X70500Y-24500D02*
D03*
X63769Y-30500D02*
D03*
X84500Y-81500D02*
D03*
X73000Y-83000D02*
D03*
X5000Y-40000D02*
D03*
X5250Y-146750D02*
D03*
X-3000Y-150500D02*
D03*
X41500Y-113500D02*
D03*
X49981Y-122026D02*
D03*
X52000Y-113500D02*
D03*
X61000Y-89926D02*
D03*
X44000Y-95500D02*
D03*
X37000Y-95000D02*
D03*
X66982Y-98026D02*
D03*
Y-94526D02*
D03*
X66970Y-50077D02*
D03*
Y-54076D02*
D03*
X54000Y-69500D02*
D03*
X47000D02*
D03*
X50000Y-49500D02*
D03*
X41469Y-49577D02*
D03*
X8000Y-115000D02*
D03*
X20000Y3000D02*
D03*
X29000Y13000D02*
D03*
X15000D02*
D03*
X78000Y-50000D02*
D03*
X96000Y-6000D02*
D03*
X104000Y-18173D02*
D03*
X110000D02*
D03*
X116732D02*
D03*
X110000Y12000D02*
D03*
X117000D02*
D03*
X103000Y5000D02*
D03*
X110000D02*
D03*
X117000D02*
D03*
X79950Y-16000D02*
D03*
X92000Y-80000D02*
D03*
X124000Y-140000D02*
D03*
Y-144000D02*
D03*
X92000Y-76000D02*
D03*
X101000Y-30000D02*
D03*
X78110Y-94000D02*
D03*
X110000Y-171000D02*
D03*
X103969Y-162031D02*
D03*
X67981Y-129982D02*
D03*
X39970Y-69577D02*
D03*
X174000Y-24000D02*
D03*
X111158Y-68158D02*
D03*
X111000Y-76000D02*
D03*
X83424Y-74576D02*
D03*
X113000Y-87000D02*
D03*
X91000Y-133000D02*
D03*
X88000Y-116000D02*
D03*
X-1000Y-141000D02*
D03*
X76000Y-172000D02*
D03*
Y-153000D02*
D03*
X85000D02*
D03*
Y-172000D02*
D03*
Y-163000D02*
D03*
X76000D02*
D03*
X21512D02*
D03*
X30512D02*
D03*
Y-172000D02*
D03*
Y-153000D02*
D03*
X21512D02*
D03*
Y-172000D02*
D03*
X90000Y-182000D02*
D03*
X94646Y-182110D02*
D03*
X99000Y-182000D02*
D03*
X133000D02*
D03*
X137559Y-182110D02*
D03*
X142000Y-182000D02*
D03*
X31000Y-117144D02*
D03*
X151000Y-72000D02*
D03*
X115000Y-56000D02*
D03*
X110000Y-14000D02*
D03*
X116732D02*
D03*
X104000D02*
D03*
X151000Y-19000D02*
D03*
X67000Y-27459D02*
D03*
X74000Y-18000D02*
D03*
X114000Y-51000D02*
D03*
X151000D02*
D03*
X16000Y-107000D02*
D03*
X81000Y-10000D02*
D03*
X58500Y-47000D02*
D03*
X10000Y-123000D02*
D03*
X15500Y-12500D02*
D03*
X16000Y-112500D02*
D03*
X-5000Y-146000D02*
D03*
X-4500Y-128500D02*
D03*
X46347Y-83000D02*
D03*
X67500Y10213D02*
D03*
X47500Y5500D02*
D03*
M02*
