G04 Layer_Physical_Order=2*
G04 Layer_Color=16711680*
%FSLAX25Y25*%
%MOIN*%
G70*
G01*
G75*
%ADD32C,0.00800*%
%ADD33C,0.01200*%
%ADD34C,0.01000*%
%ADD37C,0.03000*%
%ADD48C,0.05118*%
%ADD49C,0.27559*%
%ADD50R,0.05905X0.05905*%
%ADD51C,0.05905*%
%ADD52C,0.02600*%
%ADD53C,0.04000*%
G36*
X155054Y13961D02*
X154319Y13656D01*
X152268Y12400D01*
X150440Y10838D01*
X148878Y9009D01*
X147621Y6958D01*
X146701Y4736D01*
X146139Y2398D01*
X145950Y0D01*
X146139Y-2397D01*
X146701Y-4736D01*
X147621Y-6958D01*
X148878Y-9009D01*
X150440Y-10838D01*
X152268Y-12399D01*
X154319Y-13656D01*
X156541Y-14577D01*
X158880Y-15138D01*
X161277Y-15327D01*
X163675Y-15138D01*
X166014Y-14577D01*
X168236Y-13656D01*
X170286Y-12399D01*
X172115Y-10838D01*
X173677Y-9009D01*
X174934Y-6958D01*
X175238Y-6223D01*
X176238Y-6422D01*
Y-176509D01*
X175238Y-176708D01*
X174934Y-175973D01*
X173677Y-173922D01*
X172115Y-172093D01*
X170286Y-170531D01*
X168236Y-169274D01*
X166014Y-168354D01*
X163675Y-167793D01*
X161277Y-167604D01*
X158880Y-167793D01*
X156541Y-168354D01*
X154319Y-169274D01*
X152268Y-170531D01*
X150440Y-172093D01*
X148878Y-173922D01*
X147621Y-175973D01*
X146701Y-178194D01*
X146139Y-180533D01*
X145950Y-182931D01*
X146139Y-185328D01*
X146701Y-187667D01*
X147621Y-189889D01*
X148878Y-191940D01*
X150440Y-193769D01*
X152268Y-195330D01*
X154319Y-196587D01*
X155054Y-196892D01*
X154855Y-197892D01*
X6422D01*
X6223Y-196892D01*
X6958Y-196587D01*
X9009Y-195330D01*
X10838Y-193769D01*
X12400Y-191940D01*
X13656Y-189889D01*
X14577Y-187667D01*
X15138Y-185328D01*
X15327Y-182931D01*
X15138Y-180533D01*
X14577Y-178195D01*
X13656Y-175973D01*
X12400Y-173922D01*
X10838Y-172093D01*
X9009Y-170531D01*
X6958Y-169274D01*
X4736Y-168354D01*
X2398Y-167793D01*
X0Y-167604D01*
X-2398Y-167793D01*
X-4736Y-168354D01*
X-6958Y-169274D01*
X-9009Y-170531D01*
X-10838Y-172093D01*
X-12400Y-173922D01*
X-13656Y-175973D01*
X-13991Y-176781D01*
X-14991Y-176583D01*
Y-102055D01*
X-14067Y-101672D01*
X-7370Y-108370D01*
X-6741Y-108790D01*
X-6000Y-108937D01*
X13957D01*
X14003Y-108997D01*
X14588Y-109446D01*
X15269Y-109728D01*
X16000Y-109824D01*
X16731Y-109728D01*
X17412Y-109446D01*
X17997Y-108997D01*
X18446Y-108412D01*
X18728Y-107731D01*
X18824Y-107000D01*
X18728Y-106269D01*
X18446Y-105588D01*
X17997Y-105003D01*
X17412Y-104554D01*
X16731Y-104272D01*
X16000Y-104176D01*
X15269Y-104272D01*
X14588Y-104554D01*
X14003Y-105003D01*
X13957Y-105063D01*
X-5198D01*
X-12563Y-97698D01*
Y-20302D01*
X-10698Y-18437D01*
X7000D01*
X7741Y-18290D01*
X8370Y-17870D01*
X11802Y-14437D01*
X13457D01*
X13503Y-14497D01*
X14088Y-14946D01*
X14769Y-15228D01*
X15500Y-15324D01*
X16231Y-15228D01*
X16912Y-14946D01*
X17497Y-14497D01*
X17946Y-13912D01*
X18228Y-13231D01*
X18324Y-12500D01*
X18228Y-11769D01*
X17946Y-11088D01*
X17497Y-10503D01*
X16912Y-10054D01*
X16231Y-9772D01*
X15500Y-9676D01*
X14769Y-9772D01*
X14088Y-10054D01*
X13503Y-10503D01*
X13457Y-10563D01*
X12267D01*
X11848Y-9655D01*
X12400Y-9009D01*
X13656Y-6958D01*
X14577Y-4736D01*
X15138Y-2398D01*
X15327Y0D01*
X15138Y2398D01*
X14577Y4736D01*
X13656Y6958D01*
X12400Y9009D01*
X10838Y10838D01*
X9009Y12400D01*
X6958Y13656D01*
X6223Y13961D01*
X6422Y14961D01*
X154855D01*
X155054Y13961D01*
D02*
G37*
%LPC*%
G36*
X8000Y-112176D02*
X7269Y-112272D01*
X6588Y-112554D01*
X6003Y-113003D01*
X5554Y-113588D01*
X5272Y-114269D01*
X5176Y-115000D01*
X5249Y-115559D01*
X-4922Y-125731D01*
X-5231Y-125772D01*
X-5912Y-126054D01*
X-6497Y-126503D01*
X-6946Y-127088D01*
X-7228Y-127769D01*
X-7324Y-128500D01*
X-7228Y-129231D01*
X-6946Y-129912D01*
X-6497Y-130497D01*
X-5912Y-130946D01*
X-5231Y-131228D01*
X-4500Y-131324D01*
X-3769Y-131228D01*
X-3088Y-130946D01*
X-2503Y-130497D01*
X-2054Y-129912D01*
X-1772Y-129231D01*
X-1676Y-128500D01*
X-1705Y-128281D01*
X8932Y-117645D01*
X9412Y-117446D01*
X9997Y-116997D01*
X10446Y-116412D01*
X10728Y-115731D01*
X10824Y-115000D01*
X10728Y-114269D01*
X10446Y-113588D01*
X9997Y-113003D01*
X9412Y-112554D01*
X8731Y-112272D01*
X8000Y-112176D01*
D02*
G37*
G36*
X73000Y-79470D02*
X46347D01*
X45433Y-79590D01*
X44581Y-79943D01*
X43850Y-80504D01*
X43289Y-81235D01*
X42937Y-82086D01*
X42816Y-83000D01*
X42937Y-83914D01*
X43289Y-84765D01*
X43850Y-85496D01*
X43511Y-86496D01*
X32982D01*
X32396Y-86613D01*
X31900Y-86944D01*
X31569Y-87440D01*
X31452Y-88026D01*
Y-98726D01*
X31462Y-98773D01*
X31455Y-98821D01*
X31519Y-99064D01*
X31569Y-99311D01*
X31596Y-99351D01*
X31608Y-99398D01*
X31760Y-99598D01*
X31900Y-99807D01*
X31940Y-99834D01*
X31970Y-99873D01*
X32187Y-99999D01*
X32396Y-100138D01*
X32444Y-100148D01*
X32486Y-100172D01*
X33362Y-100472D01*
X33611Y-100506D01*
X33857Y-100555D01*
X65771D01*
X66250Y-100753D01*
X66982Y-100850D01*
X67712Y-100753D01*
X68386Y-100475D01*
X68470Y-100458D01*
X68642Y-100488D01*
X69470Y-101038D01*
Y-108082D01*
X65485Y-112066D01*
X64924Y-112797D01*
X64572Y-113649D01*
X64451Y-114563D01*
Y-129982D01*
X64572Y-130895D01*
X64924Y-131747D01*
X65485Y-132478D01*
X66216Y-133039D01*
X67068Y-133391D01*
X67981Y-133512D01*
X68895Y-133391D01*
X69747Y-133039D01*
X70478Y-132478D01*
X71039Y-131747D01*
X71391Y-130895D01*
X71512Y-129982D01*
Y-116025D01*
X75496Y-112040D01*
X76057Y-111309D01*
X76410Y-110458D01*
X76530Y-109544D01*
Y-83000D01*
X76410Y-82086D01*
X76057Y-81235D01*
X75496Y-80504D01*
X74765Y-79943D01*
X73914Y-79590D01*
X73000Y-79470D01*
D02*
G37*
G36*
X-547Y-81047D02*
X-9453D01*
Y-89953D01*
X-547D01*
Y-81047D01*
D02*
G37*
G36*
X31000Y-114320D02*
X30269Y-114416D01*
X29588Y-114698D01*
X29003Y-115147D01*
X28957Y-115207D01*
X15856D01*
X15115Y-115354D01*
X14486Y-115774D01*
X10075Y-120186D01*
X10000Y-120176D01*
X9269Y-120272D01*
X8588Y-120554D01*
X8003Y-121003D01*
X7554Y-121588D01*
X7272Y-122269D01*
X7176Y-123000D01*
X7272Y-123731D01*
X7554Y-124412D01*
X8003Y-124997D01*
X8588Y-125446D01*
X9269Y-125728D01*
X10000Y-125824D01*
X10731Y-125728D01*
X11412Y-125446D01*
X11997Y-124997D01*
X12446Y-124412D01*
X12728Y-123731D01*
X12824Y-123000D01*
X12814Y-122925D01*
X16658Y-119081D01*
X28957D01*
X29003Y-119141D01*
X29588Y-119590D01*
X30269Y-119872D01*
X31000Y-119968D01*
X31731Y-119872D01*
X32412Y-119590D01*
X32997Y-119141D01*
X33446Y-118556D01*
X33728Y-117875D01*
X33824Y-117144D01*
X33728Y-116413D01*
X33446Y-115732D01*
X32997Y-115147D01*
X32412Y-114698D01*
X31731Y-114416D01*
X31000Y-114320D01*
D02*
G37*
G36*
X-1000Y-138176D02*
X-1731Y-138272D01*
X-2412Y-138554D01*
X-2997Y-139003D01*
X-3446Y-139588D01*
X-3728Y-140269D01*
X-3824Y-141000D01*
X-3814Y-141075D01*
X-6210Y-143471D01*
X-6412Y-143554D01*
X-6997Y-144003D01*
X-7446Y-144588D01*
X-7728Y-145269D01*
X-7824Y-146000D01*
X-7728Y-146731D01*
X-7446Y-147412D01*
X-6997Y-147997D01*
X-6412Y-148446D01*
X-5731Y-148728D01*
X-5000Y-148824D01*
X-4269Y-148728D01*
X-3588Y-148446D01*
X-3003Y-147997D01*
X-2554Y-147412D01*
X-2272Y-146731D01*
X-2176Y-146000D01*
X-2272Y-145269D01*
X-2347Y-145087D01*
X-1075Y-143814D01*
X-1000Y-143824D01*
X-269Y-143728D01*
X412Y-143446D01*
X997Y-142997D01*
X1446Y-142412D01*
X1728Y-141731D01*
X1824Y-141000D01*
X1728Y-140269D01*
X1446Y-139588D01*
X997Y-139003D01*
X412Y-138554D01*
X-269Y-138272D01*
X-1000Y-138176D01*
D02*
G37*
G36*
X99000Y-179176D02*
X98269Y-179272D01*
X97588Y-179554D01*
X97516Y-179609D01*
X96643Y-180113D01*
X96058Y-179665D01*
X95377Y-179382D01*
X94646Y-179286D01*
X93915Y-179382D01*
X93234Y-179665D01*
X92649Y-180113D01*
X91667Y-179750D01*
X91412Y-179554D01*
X90731Y-179272D01*
X90000Y-179176D01*
X89269Y-179272D01*
X88588Y-179554D01*
X88003Y-180003D01*
X87554Y-180588D01*
X87272Y-181269D01*
X87176Y-182000D01*
X87272Y-182731D01*
X87554Y-183412D01*
X88003Y-183997D01*
X88588Y-184446D01*
X89269Y-184728D01*
X90000Y-184824D01*
X90731Y-184728D01*
X91412Y-184446D01*
X91997Y-183997D01*
X92979Y-184360D01*
X93234Y-184556D01*
X93915Y-184838D01*
X94646Y-184934D01*
X95377Y-184838D01*
X96058Y-184556D01*
X96129Y-184501D01*
X97003Y-183997D01*
X97588Y-184446D01*
X98269Y-184728D01*
X99000Y-184824D01*
X99731Y-184728D01*
X100412Y-184446D01*
X100997Y-183997D01*
X101446Y-183412D01*
X101728Y-182731D01*
X101824Y-182000D01*
X101728Y-181269D01*
X101446Y-180588D01*
X100997Y-180003D01*
X100412Y-179554D01*
X99731Y-179272D01*
X99000Y-179176D01*
D02*
G37*
G36*
X142000D02*
X141269Y-179272D01*
X140588Y-179554D01*
X140462Y-179651D01*
X139556Y-180113D01*
X138971Y-179665D01*
X138290Y-179382D01*
X137559Y-179286D01*
X136828Y-179382D01*
X136147Y-179665D01*
X135562Y-180113D01*
X134613Y-179708D01*
X134412Y-179554D01*
X133731Y-179272D01*
X133000Y-179176D01*
X132269Y-179272D01*
X131588Y-179554D01*
X131003Y-180003D01*
X130554Y-180588D01*
X130272Y-181269D01*
X130176Y-182000D01*
X130272Y-182731D01*
X130554Y-183412D01*
X131003Y-183997D01*
X131588Y-184446D01*
X132269Y-184728D01*
X133000Y-184824D01*
X133731Y-184728D01*
X134412Y-184446D01*
X134997Y-183997D01*
X135947Y-184402D01*
X136147Y-184556D01*
X136828Y-184838D01*
X137559Y-184934D01*
X138290Y-184838D01*
X138971Y-184556D01*
X139097Y-184459D01*
X140003Y-183997D01*
X140588Y-184446D01*
X141269Y-184728D01*
X142000Y-184824D01*
X142731Y-184728D01*
X143412Y-184446D01*
X143997Y-183997D01*
X144446Y-183412D01*
X144728Y-182731D01*
X144824Y-182000D01*
X144728Y-181269D01*
X144446Y-180588D01*
X143997Y-180003D01*
X143412Y-179554D01*
X142731Y-179272D01*
X142000Y-179176D01*
D02*
G37*
G36*
X63827Y-160297D02*
X62716Y-160443D01*
X61681Y-160872D01*
X60791Y-161555D01*
X60109Y-162444D01*
X59680Y-163479D01*
X59534Y-164590D01*
X59680Y-165701D01*
X60109Y-166736D01*
X60791Y-167625D01*
X61681Y-168307D01*
X62716Y-168736D01*
X63827Y-168883D01*
X64938Y-168736D01*
X65973Y-168307D01*
X66862Y-167625D01*
X67544Y-166736D01*
X67973Y-165701D01*
X68119Y-164590D01*
X67973Y-163479D01*
X67544Y-162444D01*
X66862Y-161555D01*
X65973Y-160872D01*
X64938Y-160443D01*
X63827Y-160297D01*
D02*
G37*
G36*
X42173D02*
X41062Y-160443D01*
X40027Y-160872D01*
X39138Y-161555D01*
X38456Y-162444D01*
X38027Y-163479D01*
X37881Y-164590D01*
X38027Y-165701D01*
X38456Y-166736D01*
X39138Y-167625D01*
X40027Y-168307D01*
X41062Y-168736D01*
X42173Y-168883D01*
X43284Y-168736D01*
X44319Y-168307D01*
X45209Y-167625D01*
X45891Y-166736D01*
X46320Y-165701D01*
X46466Y-164590D01*
X46320Y-163479D01*
X45891Y-162444D01*
X45209Y-161555D01*
X44319Y-160872D01*
X43284Y-160443D01*
X42173Y-160297D01*
D02*
G37*
G36*
X13864Y-44458D02*
X12804Y-44597D01*
X11817Y-45006D01*
X11442Y-45294D01*
X10714Y-45563D01*
X9987Y-45294D01*
X9612Y-45006D01*
X8624Y-44597D01*
X7565Y-44458D01*
X6505Y-44597D01*
X5518Y-45006D01*
X4670Y-45657D01*
X4019Y-46505D01*
X3610Y-47492D01*
X3471Y-48552D01*
X3610Y-49611D01*
X4019Y-50599D01*
X4670Y-51447D01*
X5518Y-52097D01*
X6505Y-52507D01*
X7565Y-52646D01*
X8624Y-52507D01*
X9612Y-52097D01*
X9987Y-51810D01*
X10714Y-51541D01*
X11442Y-51810D01*
X11817Y-52097D01*
X12804Y-52507D01*
X13864Y-52646D01*
X14923Y-52507D01*
X15911Y-52097D01*
X16759Y-51447D01*
X17409Y-50599D01*
X17818Y-49611D01*
X17958Y-48552D01*
X17818Y-47492D01*
X17409Y-46505D01*
X16759Y-45657D01*
X15911Y-45006D01*
X14923Y-44597D01*
X13864Y-44458D01*
D02*
G37*
G36*
X19770Y-52332D02*
X18710Y-52472D01*
X17722Y-52881D01*
X16875Y-53531D01*
X16224Y-54379D01*
X15883Y-55202D01*
X15445Y-55368D01*
X14806Y-55372D01*
X14171Y-54545D01*
X13159Y-53768D01*
X11980Y-53280D01*
X10714Y-53113D01*
X9449Y-53280D01*
X8270Y-53768D01*
X7258Y-54545D01*
X6623Y-55372D01*
X5984Y-55369D01*
X5545Y-55203D01*
X5204Y-54379D01*
X4554Y-53531D01*
X3706Y-52881D01*
X2718Y-52472D01*
X1659Y-52332D01*
X599Y-52472D01*
X-388Y-52881D01*
X-1236Y-53531D01*
X-1887Y-54379D01*
X-2296Y-55366D01*
X-2435Y-56426D01*
X-2296Y-57486D01*
X-1887Y-58473D01*
X-1236Y-59321D01*
X-622Y-59792D01*
X-388Y-60132D01*
X-389Y-61054D01*
X-705Y-61466D01*
X-1114Y-62453D01*
X-1254Y-63512D01*
X-1114Y-64572D01*
X-705Y-65560D01*
X-55Y-66408D01*
X793Y-67058D01*
X1781Y-67467D01*
X2840Y-67607D01*
X3900Y-67467D01*
X4887Y-67058D01*
X5735Y-66408D01*
X6386Y-65560D01*
X6795Y-64572D01*
X6934Y-63512D01*
X6795Y-62453D01*
X6740Y-62321D01*
X7562Y-61691D01*
X8270Y-62235D01*
X9449Y-62723D01*
X10714Y-62889D01*
X11980Y-62723D01*
X13159Y-62235D01*
X14171Y-61458D01*
X14948Y-60445D01*
X15436Y-59266D01*
X15456Y-59115D01*
X16502Y-58835D01*
X16875Y-59321D01*
X17722Y-59972D01*
X18710Y-60381D01*
X19770Y-60520D01*
X20829Y-60381D01*
X21817Y-59972D01*
X22664Y-59321D01*
X23315Y-58473D01*
X23724Y-57486D01*
X23864Y-56426D01*
X23724Y-55366D01*
X23315Y-54379D01*
X22664Y-53531D01*
X21817Y-52881D01*
X20829Y-52472D01*
X19770Y-52332D01*
D02*
G37*
G36*
X67500Y13037D02*
X66769Y12941D01*
X66088Y12658D01*
X65503Y12210D01*
X65054Y11625D01*
X64772Y10944D01*
X64676Y10213D01*
X64686Y10138D01*
X61985Y7437D01*
X49543D01*
X49497Y7497D01*
X48912Y7946D01*
X48231Y8228D01*
X47500Y8324D01*
X46769Y8228D01*
X46088Y7946D01*
X45503Y7497D01*
X45054Y6912D01*
X44772Y6231D01*
X44676Y5500D01*
X44772Y4769D01*
X45054Y4088D01*
X45503Y3503D01*
X46088Y3054D01*
X46769Y2772D01*
X47500Y2676D01*
X48231Y2772D01*
X48912Y3054D01*
X49497Y3503D01*
X49543Y3563D01*
X62787D01*
X63529Y3710D01*
X64157Y4130D01*
X67425Y7398D01*
X67500Y7388D01*
X68231Y7485D01*
X68912Y7767D01*
X69497Y8216D01*
X69946Y8800D01*
X70228Y9482D01*
X70324Y10213D01*
X70228Y10944D01*
X69946Y11625D01*
X69497Y12210D01*
X68912Y12658D01*
X68231Y12941D01*
X67500Y13037D01*
D02*
G37*
G36*
X74000Y-15176D02*
X73269Y-15272D01*
X72588Y-15554D01*
X72003Y-16003D01*
X71554Y-16588D01*
X71272Y-17269D01*
X71176Y-18000D01*
X71272Y-18731D01*
X71554Y-19412D01*
X71961Y-19942D01*
Y-20992D01*
X71667Y-21306D01*
X70961Y-21736D01*
X70500Y-21676D01*
X69769Y-21772D01*
X69088Y-22054D01*
X68503Y-22503D01*
X68054Y-23088D01*
X67772Y-23769D01*
X67000Y-24635D01*
X66269Y-24731D01*
X65588Y-25013D01*
X65003Y-25462D01*
X64554Y-26047D01*
X64272Y-26728D01*
X64271Y-26733D01*
X63769Y-27676D01*
X63038Y-27772D01*
X62357Y-28054D01*
X61772Y-28503D01*
X61323Y-29088D01*
X61041Y-29769D01*
X60945Y-30500D01*
X61041Y-31231D01*
X61323Y-31912D01*
X61772Y-32497D01*
X62357Y-32946D01*
X63038Y-33228D01*
X63769Y-33324D01*
X64500Y-33228D01*
X64995Y-33023D01*
X108207Y-76235D01*
X108272Y-76731D01*
X108554Y-77412D01*
X109003Y-77997D01*
X109588Y-78446D01*
X110269Y-78728D01*
X111000Y-78824D01*
X111731Y-78728D01*
X112412Y-78446D01*
X112997Y-77997D01*
X113446Y-77412D01*
X113728Y-76731D01*
X113824Y-76000D01*
X113728Y-75269D01*
X113446Y-74588D01*
X112997Y-74003D01*
X112412Y-73554D01*
X111731Y-73272D01*
X111235Y-73207D01*
X109691Y-71663D01*
X110258Y-70815D01*
X110426Y-70885D01*
X111158Y-70982D01*
X111888Y-70885D01*
X112570Y-70603D01*
X113154Y-70155D01*
X113603Y-69570D01*
X113885Y-68888D01*
X113982Y-68158D01*
X113885Y-67427D01*
X113603Y-66745D01*
X113154Y-66161D01*
X112570Y-65712D01*
X111888Y-65430D01*
X111158Y-65333D01*
X110426Y-65430D01*
X109745Y-65712D01*
X109160Y-66161D01*
X108231Y-65950D01*
X101027Y-58746D01*
X101541Y-57846D01*
X102000Y-57937D01*
X112957D01*
X113003Y-57997D01*
X113588Y-58446D01*
X114269Y-58728D01*
X115000Y-58824D01*
X115731Y-58728D01*
X116412Y-58446D01*
X116997Y-57997D01*
X117446Y-57412D01*
X117728Y-56731D01*
X117824Y-56000D01*
X117728Y-55269D01*
X117446Y-54588D01*
X116997Y-54003D01*
X116641Y-53730D01*
X116411Y-53469D01*
X116403Y-52468D01*
X116446Y-52412D01*
X116728Y-51731D01*
X116824Y-51000D01*
X116728Y-50269D01*
X116446Y-49588D01*
X115997Y-49003D01*
X115412Y-48554D01*
X114731Y-48272D01*
X114000Y-48176D01*
X113269Y-48272D01*
X112588Y-48554D01*
X112058Y-48961D01*
X103845D01*
X76039Y-21155D01*
Y-19942D01*
X76446Y-19412D01*
X76728Y-18731D01*
X76824Y-18000D01*
X76728Y-17269D01*
X76446Y-16588D01*
X75997Y-16003D01*
X75412Y-15554D01*
X74731Y-15272D01*
X74000Y-15176D01*
D02*
G37*
G36*
X58500Y-44176D02*
X57769Y-44272D01*
X57290Y-44471D01*
X38196D01*
X37611Y-44587D01*
X37115Y-44919D01*
X36783Y-45415D01*
X36667Y-46000D01*
Y-57253D01*
X36783Y-57839D01*
X37115Y-58335D01*
X37924Y-59145D01*
X38420Y-59476D01*
X39006Y-59592D01*
X68696D01*
X69281Y-59476D01*
X69777Y-59145D01*
X70109Y-58648D01*
X70225Y-58063D01*
Y-48063D01*
X70109Y-47478D01*
X69777Y-46982D01*
X67714Y-44919D01*
X67218Y-44587D01*
X66633Y-44471D01*
X59710D01*
X59231Y-44272D01*
X58500Y-44176D01*
D02*
G37*
G36*
X151000Y-16176D02*
X150269Y-16272D01*
X149588Y-16554D01*
X149003Y-17003D01*
X148554Y-17588D01*
X148272Y-18269D01*
X148176Y-19000D01*
X148272Y-19731D01*
X148554Y-20412D01*
X148961Y-20942D01*
Y-49058D01*
X148554Y-49588D01*
X148272Y-50269D01*
X148176Y-51000D01*
X148272Y-51731D01*
X148554Y-52412D01*
X148961Y-52942D01*
Y-70058D01*
X148554Y-70588D01*
X148272Y-71269D01*
X148176Y-72000D01*
X148272Y-72731D01*
X148554Y-73412D01*
X149003Y-73997D01*
X149588Y-74446D01*
X150269Y-74728D01*
X151000Y-74824D01*
X151731Y-74728D01*
X152412Y-74446D01*
X152997Y-73997D01*
X153446Y-73412D01*
X153728Y-72731D01*
X153824Y-72000D01*
X153728Y-71269D01*
X153446Y-70588D01*
X153039Y-70058D01*
Y-52942D01*
X153446Y-52412D01*
X153728Y-51731D01*
X153824Y-51000D01*
X153728Y-50269D01*
X153446Y-49588D01*
X153039Y-49058D01*
Y-20942D01*
X153446Y-20412D01*
X153728Y-19731D01*
X153824Y-19000D01*
X153728Y-18269D01*
X153446Y-17588D01*
X152997Y-17003D01*
X152412Y-16554D01*
X151731Y-16272D01*
X151000Y-16176D01*
D02*
G37*
G36*
X-5000Y-71009D02*
X-6162Y-71162D01*
X-7246Y-71610D01*
X-8176Y-72324D01*
X-8890Y-73254D01*
X-9338Y-74338D01*
X-9491Y-75500D01*
X-9338Y-76662D01*
X-8890Y-77746D01*
X-8176Y-78676D01*
X-7246Y-79390D01*
X-6162Y-79838D01*
X-5000Y-79991D01*
X-3838Y-79838D01*
X-2754Y-79390D01*
X-1824Y-78676D01*
X-1111Y-77746D01*
X-662Y-76662D01*
X-509Y-75500D01*
X-662Y-74338D01*
X-1111Y-73254D01*
X-1824Y-72324D01*
X-2754Y-71610D01*
X-3838Y-71162D01*
X-5000Y-71009D01*
D02*
G37*
G36*
X98304Y-70367D02*
X85696D01*
X84955Y-70514D01*
X84326Y-70934D01*
X83498Y-71762D01*
X83424Y-71752D01*
X82692Y-71849D01*
X82011Y-72131D01*
X81427Y-72579D01*
X80978Y-73164D01*
X80695Y-73846D01*
X80599Y-74576D01*
X80695Y-75308D01*
X80978Y-75989D01*
X81427Y-76573D01*
X82011Y-77022D01*
X82692Y-77305D01*
X83424Y-77401D01*
X84154Y-77305D01*
X84836Y-77022D01*
X85421Y-76573D01*
X85869Y-75989D01*
X86151Y-75308D01*
X86248Y-74576D01*
X87154Y-74241D01*
X88399D01*
X89076Y-75215D01*
X89074Y-75241D01*
X88974Y-76000D01*
Y-80000D01*
X89077Y-80783D01*
X89380Y-81513D01*
X89860Y-82140D01*
X90974Y-83253D01*
Y-113305D01*
X90582Y-113566D01*
X89974Y-113733D01*
X89513Y-113380D01*
X88783Y-113077D01*
X88000Y-112974D01*
X87217Y-113077D01*
X86487Y-113380D01*
X85860Y-113860D01*
X85379Y-114487D01*
X85077Y-115217D01*
X84974Y-116000D01*
Y-130000D01*
X85077Y-130783D01*
X85379Y-131513D01*
X85860Y-132140D01*
X88860Y-135140D01*
X89487Y-135620D01*
X90217Y-135923D01*
X91000Y-136026D01*
X91783Y-135923D01*
X92513Y-135620D01*
X93140Y-135140D01*
X93621Y-134513D01*
X93923Y-133783D01*
X93942Y-133636D01*
X94998Y-133277D01*
X96860Y-135140D01*
X97487Y-135620D01*
X98217Y-135923D01*
X99000Y-136026D01*
X99000Y-136026D01*
X119747D01*
X120974Y-137253D01*
Y-140000D01*
Y-144000D01*
X121077Y-144783D01*
X121379Y-145513D01*
X121860Y-146140D01*
X122487Y-146621D01*
X123217Y-146923D01*
X124000Y-147026D01*
X124783Y-146923D01*
X125513Y-146621D01*
X126140Y-146140D01*
X126620Y-145513D01*
X126923Y-144783D01*
X127026Y-144000D01*
Y-140000D01*
Y-136000D01*
X126923Y-135217D01*
X126620Y-134487D01*
X126140Y-133860D01*
X123140Y-130860D01*
X122513Y-130379D01*
X121783Y-130077D01*
X121000Y-129974D01*
X100253D01*
X99203Y-128924D01*
X99586Y-128000D01*
X169000Y-128000D01*
X169000Y-92000D01*
X97026Y-92000D01*
Y-82000D01*
X97026Y-82000D01*
X96923Y-81217D01*
X96621Y-80487D01*
X96140Y-79860D01*
X95026Y-78747D01*
Y-76000D01*
X94926Y-75241D01*
X94924Y-75215D01*
X95601Y-74241D01*
X97502D01*
X110186Y-86925D01*
X110176Y-87000D01*
X110272Y-87731D01*
X110554Y-88412D01*
X111003Y-88997D01*
X111588Y-89446D01*
X112269Y-89728D01*
X113000Y-89824D01*
X113731Y-89728D01*
X114412Y-89446D01*
X114997Y-88997D01*
X115446Y-88412D01*
X115728Y-87731D01*
X115824Y-87000D01*
X115728Y-86269D01*
X115446Y-85588D01*
X114997Y-85003D01*
X114412Y-84554D01*
X113731Y-84272D01*
X113000Y-84176D01*
X112925Y-84186D01*
X99674Y-70934D01*
X99045Y-70514D01*
X98304Y-70367D01*
D02*
G37*
%LPD*%
G36*
X67981Y-99026D02*
X33857D01*
X32982Y-98726D01*
Y-88026D01*
X67981D01*
Y-99026D01*
D02*
G37*
G36*
X68696Y-48063D02*
Y-58063D01*
X39006D01*
X38196Y-57253D01*
Y-46000D01*
X66633D01*
X68696Y-48063D01*
D02*
G37*
D32*
X70500Y-24500D02*
X102000Y-56000D01*
X83424Y-74576D02*
X85696Y-72304D01*
X98304D01*
X113000Y-87000D01*
X-5000Y-145000D02*
X-1000Y-141000D01*
X15856Y-117144D02*
X31000D01*
X67000Y-27459D02*
X107699Y-68158D01*
X111158D01*
X102000Y-56000D02*
X115000D01*
X10000Y-123000D02*
X15856Y-117144D01*
X-14500Y-98500D02*
X-6000Y-107000D01*
X16000D01*
X-14500Y-98500D02*
Y-19500D01*
X11000Y-12500D02*
X15500D01*
X-14500Y-19500D02*
X-11500Y-16500D01*
X7000D01*
X11000Y-12500D01*
X-5000Y-146000D02*
Y-145000D01*
X62787Y5500D02*
X67500Y10213D01*
X47500Y5500D02*
X62787D01*
D33*
X65500Y-30500D02*
X111000Y-76000D01*
X63769Y-30500D02*
X65500D01*
D34*
X8000Y-115693D02*
Y-115000D01*
X74000Y-22000D02*
Y-18000D01*
Y-22000D02*
X103000Y-51000D01*
X114000D01*
X151000Y-72000D02*
Y-51000D01*
Y-19000D01*
X-4500Y-128500D02*
Y-128193D01*
X8000Y-115693D01*
X161277Y-199946D02*
G03*
X178293Y-182931I0J17015D01*
G01*
X-17015Y-182931D02*
G03*
X0Y-199946I17015J0D01*
G01*
Y17015D02*
G03*
X-17015Y0I0J-17015D01*
G01*
X178293Y0D02*
G03*
X161277Y17015I-17015J0D01*
G01*
X-17030Y-182931D02*
Y0D01*
X178277Y-182931D02*
Y0D01*
X0Y-199931D02*
X161277D01*
X0Y17000D02*
X161277D01*
D37*
X92000Y-80000D02*
X94000Y-82000D01*
X121000Y-133000D02*
X124000Y-136000D01*
Y-140000D02*
Y-136000D01*
Y-144000D02*
Y-140000D01*
X92000Y-80000D02*
Y-76000D01*
X94000Y-128000D02*
Y-82000D01*
Y-128000D02*
X99000Y-133000D01*
X121000D01*
X88000Y-130000D02*
Y-116000D01*
Y-130000D02*
X91000Y-133000D01*
D48*
X2840Y-63512D02*
D03*
X10714D02*
D03*
X18588D02*
D03*
X1659Y-56426D02*
D03*
X19770D02*
D03*
X7565Y-48552D02*
D03*
X13864D02*
D03*
D49*
X0Y-182931D02*
D03*
X161277Y-182931D02*
D03*
Y0D02*
D03*
X0Y0D02*
D03*
D50*
X-5000Y-85500D02*
D03*
D51*
Y-75500D02*
D03*
D52*
X70500Y-24500D02*
D03*
X63769Y-30500D02*
D03*
X84500Y-81500D02*
D03*
X73000Y-83000D02*
D03*
X5000Y-40000D02*
D03*
X5250Y-146750D02*
D03*
X-3000Y-150500D02*
D03*
X41500Y-113500D02*
D03*
X49981Y-122026D02*
D03*
X52000Y-113500D02*
D03*
X61000Y-89926D02*
D03*
X44000Y-95500D02*
D03*
X37000Y-95000D02*
D03*
X66982Y-98026D02*
D03*
Y-94526D02*
D03*
X66970Y-50077D02*
D03*
Y-54076D02*
D03*
X54000Y-69500D02*
D03*
X47000D02*
D03*
X50000Y-49500D02*
D03*
X41469Y-49577D02*
D03*
X8000Y-115000D02*
D03*
X20000Y3000D02*
D03*
X29000Y13000D02*
D03*
X15000D02*
D03*
X78000Y-50000D02*
D03*
X96000Y-6000D02*
D03*
X104000Y-18173D02*
D03*
X110000D02*
D03*
X116732D02*
D03*
X110000Y12000D02*
D03*
X117000D02*
D03*
X103000Y5000D02*
D03*
X110000D02*
D03*
X117000D02*
D03*
X79950Y-16000D02*
D03*
X92000Y-80000D02*
D03*
X124000Y-140000D02*
D03*
Y-144000D02*
D03*
X92000Y-76000D02*
D03*
X101000Y-30000D02*
D03*
X78110Y-94000D02*
D03*
X110000Y-171000D02*
D03*
X103969Y-162031D02*
D03*
X67981Y-129982D02*
D03*
X39970Y-69577D02*
D03*
X174000Y-24000D02*
D03*
X111158Y-68158D02*
D03*
X111000Y-76000D02*
D03*
X83424Y-74576D02*
D03*
X113000Y-87000D02*
D03*
X91000Y-133000D02*
D03*
X88000Y-116000D02*
D03*
X-1000Y-141000D02*
D03*
X76000Y-172000D02*
D03*
Y-153000D02*
D03*
X85000D02*
D03*
Y-172000D02*
D03*
Y-163000D02*
D03*
X76000D02*
D03*
X21512D02*
D03*
X30512D02*
D03*
Y-172000D02*
D03*
Y-153000D02*
D03*
X21512D02*
D03*
Y-172000D02*
D03*
X90000Y-182000D02*
D03*
X94646Y-182110D02*
D03*
X99000Y-182000D02*
D03*
X133000D02*
D03*
X137559Y-182110D02*
D03*
X142000Y-182000D02*
D03*
X31000Y-117144D02*
D03*
X151000Y-72000D02*
D03*
X115000Y-56000D02*
D03*
X110000Y-14000D02*
D03*
X116732D02*
D03*
X104000D02*
D03*
X151000Y-19000D02*
D03*
X67000Y-27459D02*
D03*
X74000Y-18000D02*
D03*
X114000Y-51000D02*
D03*
X151000D02*
D03*
X16000Y-107000D02*
D03*
X81000Y-10000D02*
D03*
X58500Y-47000D02*
D03*
X10000Y-123000D02*
D03*
X15500Y-12500D02*
D03*
X16000Y-112500D02*
D03*
X-5000Y-146000D02*
D03*
X-4500Y-128500D02*
D03*
X46347Y-83000D02*
D03*
X67500Y10213D02*
D03*
X47500Y5500D02*
D03*
D53*
X46347Y-83000D02*
X73000D01*
Y-109544D02*
Y-83000D01*
X67981Y-129982D02*
Y-114563D01*
X73000Y-109544D01*
M02*
