M48
;Layer_Color=9474304
;FILE_FORMAT=2:5
INCH,LZ
;TYPE=PLATED
T1F00S00C0.01200
T2F00S00C0.03543
;TYPE=NON_PLATED
T3F00S00C0.05512
T4F00S00C0.06693
T5F00S00C0.18740
%
T01
X009Y-0182
X0094646Y-018211
X0099Y-0182
X0133
X0137559Y-018211
X0142Y-0182
X011Y-0171
X0103969Y-0162031
X0085Y-0163
Y-0172
X0076
Y-0163
Y-0153
X0085
X0091Y-0133
X0088Y-0116
X007811Y-0094
X0066982Y-0094526
Y-0098026
X0061Y-0089926
X0073Y-0083
X00845Y-00815
X0083424Y-0074576
X0092Y-0076
Y-008
X0111Y-0076
X0111158Y-0068158
X0115Y-0056
X0114Y-0051
X0101Y-003
X00705Y-00245
X0067Y-0027459
X0063769Y-00305
X00585Y-0047
X005Y-00495
X0041469Y-0049577
X0047Y-00695
X0054
X0046347Y-0083
X0044Y-00955
X00415Y-01135
X0052
X0049981Y-0122026
X0067981Y-0129982
X0124Y-014
Y-0144
X0113Y-0087
X0151Y-0072
Y-0051
X0174Y-0024
X0078Y-005
X006697Y-0050077
Y-0054076
X003997Y-0069577
X0037Y-0095
X0031Y-0117144
X0016Y-01125
Y-0107
X0008Y-0115
X001Y-0123
X-00045Y-01285
X-0001Y-0141
X-0005Y-0146
X-0003Y-01505
X000525Y-014675
X0021512Y-0153
X0030512
Y-0163
X0021512
Y-0172
X0030512
X0005Y-004
X00155Y-00125
X002Y0003
X0015Y0013
X0029
X00475Y00055
X00675Y0010213
X0081Y-001
X007995Y-0016
X0074Y-0018
X0104Y-0018173
Y-0014
X011
Y-0018173
X0116732
Y-0014
X0117Y0005
Y0012
X011
Y0005
X0103
X0096Y-0006
X0151Y-0019
T02
X-0005Y-00855
Y-00755
X000284Y-0063512
X0010714
X0018588
X001977Y-0056426
X0013864Y-0048552
X0007565
X0001659Y-0056426
T03
X0042173Y-016459
X0063827
T04
X0010714Y-0058001
T05
X0Y-0182931
X0161277Y-0182931
X0Y0
X0161277Y0
M30
