G04 Layer_Color=8388736*
%FSLAX25Y25*%
%MOIN*%
G70*
G01*
G75*
%ADD60R,0.14186X0.24422*%
G04:AMPARAMS|DCode=61|XSize=35.56mil|YSize=126.11mil|CornerRadius=10.89mil|HoleSize=0mil|Usage=FLASHONLY|Rotation=0.000|XOffset=0mil|YOffset=0mil|HoleType=Round|Shape=RoundedRectangle|*
%AMROUNDEDRECTD61*
21,1,0.03556,0.10433,0,0,0.0*
21,1,0.01378,0.12611,0,0,0.0*
1,1,0.02178,0.00689,-0.05216*
1,1,0.02178,-0.00689,-0.05216*
1,1,0.02178,-0.00689,0.05216*
1,1,0.02178,0.00689,0.05216*
%
%ADD61ROUNDEDRECTD61*%
%ADD62R,0.09461X0.10249*%
%ADD63R,0.04488X0.04882*%
%ADD64R,0.04882X0.04488*%
%ADD65R,0.07808X0.14579*%
%ADD66R,0.04343X0.04540*%
%ADD67R,0.04343X0.04540*%
%ADD68R,0.06509X0.02572*%
%ADD69R,0.09265X0.13398*%
%ADD70R,0.09265X0.04343*%
G04:AMPARAMS|DCode=71|XSize=145.79mil|YSize=72.96mil|CornerRadius=20.24mil|HoleSize=0mil|Usage=FLASHONLY|Rotation=0.000|XOffset=0mil|YOffset=0mil|HoleType=Round|Shape=RoundedRectangle|*
%AMROUNDEDRECTD71*
21,1,0.14579,0.03248,0,0,0.0*
21,1,0.10531,0.07296,0,0,0.0*
1,1,0.04048,0.05266,-0.01624*
1,1,0.04048,-0.05266,-0.01624*
1,1,0.04048,-0.05266,0.01624*
1,1,0.04048,0.05266,0.01624*
%
%ADD71ROUNDEDRECTD71*%
G04:AMPARAMS|DCode=72|XSize=58mil|YSize=122.96mil|CornerRadius=16.5mil|HoleSize=0mil|Usage=FLASHONLY|Rotation=0.000|XOffset=0mil|YOffset=0mil|HoleType=Round|Shape=RoundedRectangle|*
%AMROUNDEDRECTD72*
21,1,0.05800,0.08996,0,0,0.0*
21,1,0.02500,0.12296,0,0,0.0*
1,1,0.03300,0.01250,-0.04498*
1,1,0.03300,-0.01250,-0.04498*
1,1,0.03300,-0.01250,0.04498*
1,1,0.03300,0.01250,0.04498*
%
%ADD72ROUNDEDRECTD72*%
%ADD73R,0.04737X0.09658*%
%ADD74R,0.09658X0.04737*%
G04:AMPARAMS|DCode=75|XSize=106.42mil|YSize=106.42mil|CornerRadius=28.61mil|HoleSize=0mil|Usage=FLASHONLY|Rotation=90.000|XOffset=0mil|YOffset=0mil|HoleType=Round|Shape=RoundedRectangle|*
%AMROUNDEDRECTD75*
21,1,0.10642,0.04921,0,0,90.0*
21,1,0.04921,0.10642,0,0,90.0*
1,1,0.05721,0.02461,0.02461*
1,1,0.05721,0.02461,-0.02461*
1,1,0.05721,-0.02461,-0.02461*
1,1,0.05721,-0.02461,0.02461*
%
%ADD75ROUNDEDRECTD75*%
%ADD76R,0.01184X0.02956*%
%ADD77R,0.01184X0.04531*%
%ADD78R,0.04531X0.01184*%
%ADD79R,0.03350X0.01184*%
%ADD80R,0.05918X0.06706*%
%ADD81R,0.10446X0.06902*%
%ADD82C,0.00800*%
%ADD83C,0.05918*%
%ADD84C,0.28359*%
%ADD85R,0.06706X0.06706*%
%ADD86C,0.06706*%
%ADD87C,0.03400*%
D60*
X80244Y-162306D02*
D03*
X25756D02*
D03*
D61*
X50559Y-137031D02*
D03*
X55441D02*
D03*
X60362D02*
D03*
X45638D02*
D03*
D62*
X130000Y8598D02*
D03*
Y-16598D02*
D03*
D63*
X14000Y-119153D02*
D03*
Y-125847D02*
D03*
X53970Y-63923D02*
D03*
Y-57230D02*
D03*
X46970Y-63923D02*
D03*
Y-57230D02*
D03*
X39970Y-63923D02*
D03*
Y-57230D02*
D03*
X54981Y-106372D02*
D03*
Y-99679D02*
D03*
X48482Y-106372D02*
D03*
Y-99679D02*
D03*
X41982Y-106372D02*
D03*
Y-99679D02*
D03*
X35482Y-106372D02*
D03*
Y-99679D02*
D03*
X500Y-124846D02*
D03*
Y-118154D02*
D03*
X-8000Y-124846D02*
D03*
Y-118154D02*
D03*
X11000Y-25654D02*
D03*
Y-32346D02*
D03*
X5000Y-32346D02*
D03*
Y-25653D02*
D03*
X78500Y-80847D02*
D03*
Y-74154D02*
D03*
X76000Y-124346D02*
D03*
Y-117654D02*
D03*
X-1000Y-32346D02*
D03*
Y-25654D02*
D03*
X-8000Y-32346D02*
D03*
Y-25654D02*
D03*
X90000Y-32654D02*
D03*
Y-39347D02*
D03*
X173000Y-69653D02*
D03*
Y-76346D02*
D03*
Y-29654D02*
D03*
Y-36347D02*
D03*
X24000Y-186346D02*
D03*
Y-179654D02*
D03*
X92000Y-172346D02*
D03*
Y-165654D02*
D03*
D64*
X95346Y12000D02*
D03*
X88653D02*
D03*
X59123Y-74576D02*
D03*
X65816D02*
D03*
X59123Y-81077D02*
D03*
X65816D02*
D03*
X81623Y-61677D02*
D03*
X88316D02*
D03*
X57135Y-118526D02*
D03*
X63828D02*
D03*
X57135Y-125026D02*
D03*
X63828D02*
D03*
X81635Y-111526D02*
D03*
X88328D02*
D03*
X35346Y-123000D02*
D03*
X28653D02*
D03*
X35346Y-129000D02*
D03*
X28653D02*
D03*
X81623Y-68177D02*
D03*
X88316D02*
D03*
X80654Y-54000D02*
D03*
X87347D02*
D03*
X81635Y-105026D02*
D03*
X88328D02*
D03*
X81635Y-97526D02*
D03*
X88328D02*
D03*
X87297Y-22000D02*
D03*
X80604D02*
D03*
X36654Y-80000D02*
D03*
X43347D02*
D03*
D65*
X133158Y-145000D02*
D03*
X152842D02*
D03*
X99158D02*
D03*
X118842D02*
D03*
D66*
X7500Y-101579D02*
D03*
X3760Y-111421D02*
D03*
X-11240D02*
D03*
X-7500Y-101579D02*
D03*
D67*
X11240Y-111421D02*
D03*
X-3760D02*
D03*
D68*
X9728Y-159250D02*
D03*
Y-156750D02*
D03*
Y-154250D02*
D03*
Y-151750D02*
D03*
Y-149250D02*
D03*
Y-146750D02*
D03*
Y-144250D02*
D03*
Y-141750D02*
D03*
Y-139250D02*
D03*
Y-136750D02*
D03*
X-11728Y-159250D02*
D03*
Y-156750D02*
D03*
Y-154250D02*
D03*
Y-151750D02*
D03*
Y-149250D02*
D03*
Y-146750D02*
D03*
Y-144250D02*
D03*
Y-141750D02*
D03*
Y-139250D02*
D03*
Y-136750D02*
D03*
D69*
X111516Y-6000D02*
D03*
D70*
X88484Y-15055D02*
D03*
Y-6000D02*
D03*
Y3055D02*
D03*
D71*
X137559Y-182110D02*
D03*
X94646D02*
D03*
D72*
X121811Y-162031D02*
D03*
X110000D02*
D03*
D73*
X112315Y-31740D02*
D03*
X120189D02*
D03*
X128063D02*
D03*
X135937D02*
D03*
X143811D02*
D03*
X151685D02*
D03*
D74*
X162512Y-36661D02*
D03*
Y-44535D02*
D03*
Y-52409D02*
D03*
Y-60283D02*
D03*
Y-68158D02*
D03*
Y-76032D02*
D03*
Y-83906D02*
D03*
Y-91780D02*
D03*
X101488D02*
D03*
Y-83906D02*
D03*
Y-76032D02*
D03*
Y-68158D02*
D03*
Y-60283D02*
D03*
Y-52409D02*
D03*
Y-44535D02*
D03*
Y-36661D02*
D03*
D75*
X22000Y-39000D02*
D03*
X75150D02*
D03*
Y10213D02*
D03*
X22000D02*
D03*
D76*
X64517Y-66722D02*
D03*
X72391D02*
D03*
X62548D02*
D03*
X70422D02*
D03*
X64529Y-110671D02*
D03*
X72403D02*
D03*
X62560D02*
D03*
X70434D02*
D03*
D77*
X68454Y-65935D02*
D03*
X66485D02*
D03*
X68466Y-109884D02*
D03*
X66497D02*
D03*
D78*
X72391Y-60620D02*
D03*
Y-52155D02*
D03*
Y-58061D02*
D03*
Y-48809D02*
D03*
Y-55502D02*
D03*
X62548D02*
D03*
Y-48809D02*
D03*
Y-58061D02*
D03*
Y-52155D02*
D03*
Y-60620D02*
D03*
X72403Y-104569D02*
D03*
Y-96104D02*
D03*
Y-102010D02*
D03*
Y-92758D02*
D03*
Y-99451D02*
D03*
X62560D02*
D03*
Y-92758D02*
D03*
Y-102010D02*
D03*
Y-96104D02*
D03*
Y-104569D02*
D03*
D79*
X72981Y-63179D02*
D03*
X61958D02*
D03*
X72993Y-107128D02*
D03*
X61970D02*
D03*
D80*
X16260Y-195000D02*
D03*
X23740D02*
D03*
X83260D02*
D03*
X90740D02*
D03*
D81*
X20602Y-92000D02*
D03*
X8398D02*
D03*
X20602Y-78000D02*
D03*
X8398D02*
D03*
D82*
X10714Y-58001D02*
D03*
X63827Y-164590D02*
D03*
X42173D02*
D03*
D83*
X2840Y-63512D02*
D03*
X10714D02*
D03*
X18588D02*
D03*
X1659Y-56426D02*
D03*
X19770D02*
D03*
X7565Y-48552D02*
D03*
X13864D02*
D03*
D84*
X0Y-182931D02*
D03*
X161277Y-182931D02*
D03*
Y0D02*
D03*
X0Y0D02*
D03*
D85*
X-5000Y-85500D02*
D03*
D86*
Y-75500D02*
D03*
D87*
X70500Y-24500D02*
D03*
X63769Y-30500D02*
D03*
X84500Y-81500D02*
D03*
X73000Y-83000D02*
D03*
X5000Y-40000D02*
D03*
X5250Y-146750D02*
D03*
X-3000Y-150500D02*
D03*
X41500Y-113500D02*
D03*
X49981Y-122026D02*
D03*
X52000Y-113500D02*
D03*
X61000Y-89926D02*
D03*
X44000Y-95500D02*
D03*
X37000Y-95000D02*
D03*
X66982Y-98026D02*
D03*
Y-94526D02*
D03*
X66970Y-50077D02*
D03*
Y-54076D02*
D03*
X54000Y-69500D02*
D03*
X47000D02*
D03*
X50000Y-49500D02*
D03*
X41469Y-49577D02*
D03*
X8000Y-115000D02*
D03*
X20000Y3000D02*
D03*
X29000Y13000D02*
D03*
X15000D02*
D03*
X78000Y-50000D02*
D03*
X96000Y-6000D02*
D03*
X104000Y-18173D02*
D03*
X110000D02*
D03*
X116732D02*
D03*
X110000Y12000D02*
D03*
X117000D02*
D03*
X103000Y5000D02*
D03*
X110000D02*
D03*
X117000D02*
D03*
X79950Y-16000D02*
D03*
X92000Y-80000D02*
D03*
X124000Y-140000D02*
D03*
Y-144000D02*
D03*
X92000Y-76000D02*
D03*
X101000Y-30000D02*
D03*
X78110Y-94000D02*
D03*
X110000Y-171000D02*
D03*
X103969Y-162031D02*
D03*
X67981Y-129982D02*
D03*
X39970Y-69577D02*
D03*
X174000Y-24000D02*
D03*
X111158Y-68158D02*
D03*
X111000Y-76000D02*
D03*
X83424Y-74576D02*
D03*
X113000Y-87000D02*
D03*
X91000Y-133000D02*
D03*
X88000Y-116000D02*
D03*
X-1000Y-141000D02*
D03*
X76000Y-172000D02*
D03*
Y-153000D02*
D03*
X85000D02*
D03*
Y-172000D02*
D03*
Y-163000D02*
D03*
X76000D02*
D03*
X21512D02*
D03*
X30512D02*
D03*
Y-172000D02*
D03*
Y-153000D02*
D03*
X21512D02*
D03*
Y-172000D02*
D03*
X90000Y-182000D02*
D03*
X94646Y-182110D02*
D03*
X99000Y-182000D02*
D03*
X133000D02*
D03*
X137559Y-182110D02*
D03*
X142000Y-182000D02*
D03*
X31000Y-117144D02*
D03*
X151000Y-72000D02*
D03*
X115000Y-56000D02*
D03*
X110000Y-14000D02*
D03*
X116732D02*
D03*
X104000D02*
D03*
X151000Y-19000D02*
D03*
X67000Y-27459D02*
D03*
X74000Y-18000D02*
D03*
X114000Y-51000D02*
D03*
X151000D02*
D03*
X16000Y-107000D02*
D03*
X81000Y-10000D02*
D03*
X58500Y-47000D02*
D03*
X10000Y-123000D02*
D03*
X15500Y-12500D02*
D03*
X16000Y-112500D02*
D03*
X-5000Y-146000D02*
D03*
X-4500Y-128500D02*
D03*
X46347Y-83000D02*
D03*
X67500Y10213D02*
D03*
X47500Y5500D02*
D03*
M02*
